<svg width="645" height="70" viewBox="0 0 645 70" fill="none" xmlns="http://www.w3.org/2000/svg">
<g filter="url(#filter0_d_1115_610)">
<path d="M36 40.75V34.5H29.75V40.75H36ZM36 28.25V22H29.75V28.25H36ZM17.25 47V15.75H42.25V22H48.5V40.75H42.25V47H17.25ZM73.5 34.5V22H67.25V34.5H73.5ZM54.75 47V15.75H86V47H73.5V40.75H67.25V47H54.75ZM98.5 47V22H92.25V15.75H123.5V22H117.25V47H98.5ZM148.5 34.5V22H142.25V34.5H148.5ZM129.75 47V15.75H161V47H148.5V40.75H142.25V47H129.75ZM167.25 47V15.75H198.5V47H192.25V28.25H186V40.75H179.75V28.25H173.5V47H167.25ZM229.75 47V15.75H261V22H242.25V40.75H261V47H229.75ZM286 34.5V22H279.75V34.5H286ZM267.25 47V15.75H298.5V47H286V40.75H279.75V47H267.25ZM304.75 47V15.75H336V47H329.75V28.25H323.5V40.75H317.25V28.25H311V47H304.75ZM361 34.5V22H354.75V34.5H361ZM342.25 47V15.75H373.5V40.75H354.75V47H342.25ZM379.75 47V15.75H392.25V40.75H398.5V15.75H411V47H379.75ZM417.25 47V40.75H436V34.5H417.25V15.75H448.5V22H429.75V28.25H448.5V47H417.25ZM479.75 47V15.75H511V22H492.25V28.25H504.75V34.5H492.25V40.75H511V47H479.75ZM517.25 47V34.5H523.5V28.25H517.25V15.75H529.75V22H536V15.75H548.5V28.25H542.25V34.5H548.5V47H536V40.75H529.75V47H517.25ZM573.5 34.5V22H567.25V34.5H573.5ZM554.75 47V15.75H586V40.75H567.25V47H554.75ZM611 40.75V22H604.75V40.75H611ZM592.25 47V15.75H623.5V47H592.25Z" fill="white"/>
</g>
<defs>
<filter id="filter0_d_1115_610" x="0.25" y="0.75" width="644.25" height="69.25" filterUnits="userSpaceOnUse" color-interpolation-filters="sRGB">
<feFlood flood-opacity="0" result="BackgroundImageFix"/>
<feColorMatrix in="SourceAlpha" type="matrix" values="0 0 0 0 0 0 0 0 0 0 0 0 0 0 0 0 0 0 127 0" result="hardAlpha"/>
<feOffset dx="2" dy="4"/>
<feGaussianBlur stdDeviation="9.5"/>
<feComposite in2="hardAlpha" operator="out"/>
<feColorMatrix type="matrix" values="0 0 0 0 0 0 0 0 0 0 0 0 0 0 0 0 0 0 0.3 0"/>
<feBlend mode="normal" in2="BackgroundImageFix" result="effect1_dropShadow_1115_610"/>
<feBlend mode="normal" in="SourceGraphic" in2="effect1_dropShadow_1115_610" result="shape"/>
</filter>
</defs>
</svg>
