<svg width="1257" height="132" viewBox="0 0 1257 132" fill="none" xmlns="http://www.w3.org/2000/svg">
<g filter="url(#filter0_d_1115_611)">
<path d="M17.25 109V15.25H111V109H92.25V52.75H73.5V90.25H54.75V52.75H36V109H17.25ZM129.75 109V15.25H223.5V34H167.25V52.75H204.75V71.5H167.25V90.25H223.5V109H129.75ZM298.5 71.5V34H279.75V71.5H298.5ZM242.25 109V15.25H336V71.5H317.25V90.25H336V109H298.5V90.25H279.75V109H242.25ZM354.75 109V15.25H448.5V34H392.25V90.25H448.5V109H354.75ZM467.25 109V15.25H504.75V71.5H523.5V15.25H561V109H523.5V90.25H504.75V109H467.25ZM636 71.5V34H617.25V71.5H636ZM579.75 109V15.25H673.5V109H636V90.25H617.25V109H579.75ZM692.25 109V15.25H748.5V71.5H767.25V15.25H786V109H729.75V52.75H711V109H692.25ZM842.25 90.25V34H823.5V90.25H842.25ZM804.75 109V15.25H879.75V34H898.5V90.25H879.75V109H804.75ZM917.25 109V90.25H936V34H917.25V15.25H1011V34H992.25V90.25H1011V109H917.25ZM1029.75 109V90.25H1086V71.5H1029.75V15.25H1123.5V34H1067.25V52.75H1123.5V109H1029.75ZM1142.25 109V15.25H1236V34H1179.75V52.75H1217.25V71.5H1179.75V90.25H1236V109H1142.25Z" fill="white"/>
</g>
<defs>
<filter id="filter0_d_1115_611" x="0.25" y="0.25" width="1256.75" height="131.75" filterUnits="userSpaceOnUse" color-interpolation-filters="sRGB">
<feFlood flood-opacity="0" result="BackgroundImageFix"/>
<feColorMatrix in="SourceAlpha" type="matrix" values="0 0 0 0 0 0 0 0 0 0 0 0 0 0 0 0 0 0 127 0" result="hardAlpha"/>
<feOffset dx="2" dy="4"/>
<feGaussianBlur stdDeviation="9.5"/>
<feComposite in2="hardAlpha" operator="out"/>
<feColorMatrix type="matrix" values="0 0 0 0 0 0 0 0 0 0 0 0 0 0 0 0 0 0 0.3 0"/>
<feBlend mode="normal" in2="BackgroundImageFix" result="effect1_dropShadow_1115_611"/>
<feBlend mode="normal" in="SourceGraphic" in2="effect1_dropShadow_1115_611" result="shape"/>
</filter>
</defs>
</svg>
