<svg width="1128" height="96" viewBox="0 0 1128 96" fill="none" xmlns="http://www.w3.org/2000/svg">
<g filter="url(#filter0_d_537_126)">
<path d="M21 74V14H81V26H45V38H69V50H45V74H21ZM93 74V62H105V26H93V14H153V26H141V62H153V74H93ZM165 74V14H201V50H213V14H225V74H189V38H177V74H165ZM261 62V26H249V62H261ZM237 74V14H285V26H297V62H285V74H237ZM369 74V50H357V14H381V38H393V14H417V50H405V74H369ZM465 62V26H453V62H465ZM429 74V14H489V74H429ZM501 74V14H525V62H537V14H561V74H501ZM609 50V26H597V50H609ZM573 74V14H633V50H621V62H633V74H609V62H597V74H573ZM693 74V14H753V26H717V38H741V50H717V74H693ZM765 74V14H789V62H801V14H825V74H765ZM849 74V26H837V14H897V26H885V74H849ZM909 74V14H933V62H945V14H969V74H909ZM1017 50V26H1005V50H1017ZM981 74V14H1041V50H1029V62H1041V74H1017V62H1005V74H981ZM1053 74V14H1113V26H1077V38H1101V50H1077V62H1113V74H1053Z" fill="white"/>
</g>
<defs>
<filter id="filter0_d_537_126" x="0" y="0" width="1128" height="96" filterUnits="userSpaceOnUse" color-interpolation-filters="sRGB">
<feFlood flood-opacity="0" result="BackgroundImageFix"/>
<feColorMatrix in="SourceAlpha" type="matrix" values="0 0 0 0 0 0 0 0 0 0 0 0 0 0 0 0 0 0 127 0" result="hardAlpha"/>
<feOffset dx="-3" dy="4"/>
<feGaussianBlur stdDeviation="9"/>
<feComposite in2="hardAlpha" operator="out"/>
<feColorMatrix type="matrix" values="0 0 0 0 0 0 0 0 0 0 0 0 0 0 0 0 0 0 0.23 0"/>
<feBlend mode="normal" in2="BackgroundImageFix" result="effect1_dropShadow_537_126"/>
<feBlend mode="normal" in="SourceGraphic" in2="effect1_dropShadow_537_126" result="shape"/>
</filter>
</defs>
</svg>
