<svg width="18" height="22" viewBox="0 0 18 22" fill="none" xmlns="http://www.w3.org/2000/svg">
<path d="M9 1.98163C7.14348 1.98163 5.36301 2.71199 4.05025 4.01204C2.7375 5.31209 2 7.07534 2 8.91389C2 11.7482 3.782 14.4825 5.738 16.6008C6.73814 17.6798 7.82943 18.6725 9 19.5678C9.17467 19.4351 9.37967 19.2733 9.615 19.0825C10.5548 18.3182 11.4393 17.4896 12.262 16.6027C14.218 14.4825 16 11.7492 16 8.91389C16 7.07534 15.2625 5.31209 13.9497 4.01204C12.637 2.71199 10.8565 1.98163 9 1.98163ZM9 22L8.433 21.6138L8.43 21.6118L8.424 21.6068L8.404 21.593L8.329 21.5405L8.059 21.3454C6.69086 20.3271 5.41988 19.1868 4.262 17.9387C2.218 15.7224 0 12.5147 0 8.9129C3.55683e-08 6.54905 0.948211 4.28202 2.63604 2.61053C4.32387 0.939035 6.61305 0 9 0C11.3869 0 13.6761 0.939035 15.364 2.61053C17.0518 4.28202 18 6.54905 18 8.9129C18 12.5147 15.782 15.7233 13.738 17.9367C12.5804 19.1848 11.3098 20.3251 9.942 21.3434C9.82805 21.4277 9.71305 21.5106 9.597 21.592L9.576 21.6059L9.57 21.6108L9.568 21.6118L9 22ZM9 6.93324C8.46957 6.93324 7.96086 7.14192 7.58579 7.51336C7.21071 7.8848 7 8.38859 7 8.91389C7 9.43919 7.21071 9.94297 7.58579 10.3144C7.96086 10.6859 8.46957 10.8945 9 10.8945C9.53043 10.8945 10.0391 10.6859 10.4142 10.3144C10.7893 9.94297 11 9.43919 11 8.91389C11 8.38859 10.7893 7.8848 10.4142 7.51336C10.0391 7.14192 9.53043 6.93324 9 6.93324ZM5 8.91389C5 7.86329 5.42143 6.85572 6.17157 6.11283C6.92172 5.36995 7.93913 4.9526 9 4.9526C10.0609 4.9526 11.0783 5.36995 11.8284 6.11283C12.5786 6.85572 13 7.86329 13 8.91389C13 9.96449 12.5786 10.9721 11.8284 11.7149C11.0783 12.4578 10.0609 12.8752 9 12.8752C7.93913 12.8752 6.92172 12.4578 6.17157 11.7149C5.42143 10.9721 5 9.96449 5 8.91389Z" fill="#3A3A3A"/>
</svg>
